<?xml version="1.0" encoding="UTF-8"?>
<svg id="_레이어_1" data-name=" 레이어 1" xmlns="http://www.w3.org/2000/svg" viewBox="0 0 686.16 744.86">
  <defs>
    <style>
      .cls-1 {
        fill: #fff;
        fill-rule: evenodd;
      }

      .cls-2 {
        fill: none;
        stroke: #fff;
        stroke-linecap: round;
        stroke-miterlimit: 133.33;
        stroke-width: 56.67px;
      }
    </style>
  </defs>
  <g id="Page-1">
    <g id="log-white">
      <path id="XLS" class="cls-1" d="M552.59,238.71h-291.41v291.41h52.98v-238.43h216.44l101.46,101.46v136.96h52.98v-158.95l-132.46-132.46h.01ZM259.09,742.06v-158.92h35.78v130.88h68.3v28.04h-104.08,0ZM449.3,580.34c24.97,0,44.11,7.93,57.42,23.78,12.79,15.18,19.18,34.69,19.18,58.54,0,26.09-7.55,46.84-22.65,62.24-13.01,13.31-30.99,19.96-53.94,19.96-24.97,0-44.11-7.93-57.42-23.78-12.79-15.18-19.18-34.99-19.18-59.44s7.55-46.06,22.65-61.46c13.08-13.23,31.07-19.85,53.94-19.85h0ZM449.19,608.37c-12.93,0-22.92,5.38-29.94,16.15-6.36,9.72-9.53,22.21-9.53,37.46,0,17.64,3.78,31.33,11.33,41.05,7.1,9.2,16.52,13.79,28.26,13.79,12.86,0,22.88-5.42,30.06-16.26,6.36-9.57,9.53-22.21,9.53-37.91,0-17.27-3.78-30.77-11.33-40.49-7.1-9.2-16.56-13.79-28.37-13.79h-.01ZM686.16,653.12v81.08c-9.12,3.07-15.55,5.08-19.29,6.06-11.59,3.07-24.04,4.6-37.35,4.6-26.17,0-46.09-6.58-59.78-19.74-15.18-14.5-22.77-34.73-22.77-60.67,0-29.83,9.42-52.34,28.26-67.51,13.68-11.07,32.15-16.6,55.4-16.6,19.89,0,38.39,3.63,55.51,10.88l-12.22,27.93c-8.07-4.04-15.14-6.86-21.2-8.47s-12.71-2.41-19.96-2.41c-17.35,0-30.13,5.64-38.36,16.93-6.95,9.57-10.43,22.17-10.43,37.79,0,18.77,5.23,32.9,15.7,42.39,8.37,7.63,18.77,11.44,31.18,11.44,7.25,0,14.13-1.23,20.64-3.7v-31.96h-27.36v-28.04h62.03Z"/>
    </g>
  </g>
  <path class="cls-1" d="M248.72,54.59c-9.9-19.81-38.16-19.81-48.06,0L42.64,370.75c-8.93,17.87,4.06,38.9,24.03,38.9h316.04c19.97,0,32.96-21.03,24.03-38.9L248.72,54.59ZM165.14,36.82c24.54-49.09,94.57-49.09,119.11,0l158.02,316.16c22.13,44.29-10.06,96.4-59.55,96.4H66.67c-49.5,0-81.69-52.11-59.55-96.4L165.14,36.82Z"/>
  <path class="cls-2" d="M224.86,134.81v112.34"/>
  <path class="cls-2" d="M224.86,314.57v11.23"/>
</svg>