<?xml version="1.0" encoding="UTF-8"?>
<svg id="_레이어_1" data-name="레이어_1" xmlns="http://www.w3.org/2000/svg" version="1.1" viewBox="0 0 800 800">
  <!-- Generator: Adobe Illustrator 29.2.1, SVG Export Plug-In . SVG Version: 2.1.0 Build 116)  -->
  <defs>
    <style>
      .st0, .st1 {
        fill: #fff;
      }

      .st1 {
        fill-rule: evenodd;
      }
    </style>
  </defs>
  <g id="SVGRepo_iconCarrier">
    <path class="st1" d="M798.9,423.4l-170.5-170.5-33.3,33.3,113.7,113.7H235.3s0,47,0,47h473.5s-113.7,113.7-113.7,113.7l33.3,33.2,170.5-170.4h0ZM188.2,258.7H56.8S188.2,127.2,188.2,127.2v131.4ZM20.7,228.2C7.5,241.4,0,259.6,0,278.1v451.1s517.6,0,517.6,0v-235.3s-47.1,0-47.1,0v188.2H47.1v-376.5h188.2s0-188.2,0-188.2h235.3v235.3s47.1,0,47.1,0V70.4s-309.9,0-309.9,0c-18.5,0-36.8,7.5-49.9,20.7L20.7,228.2h0Z"/>
  </g>
  <path class="st0" d="M696.3,30.8c-9.5-10.1-25.3-10.6-35.3-1.2l-250.1,234-115.7-108.3c-10.1-9.5-25.9-8.9-35.3,1.2-9.4,10.1-8.9,25.9,1.2,35.3l132.8,124.3c4.8,4.5,10.9,6.8,17.1,6.8s12.3-2.3,17.1-6.8l267.2-250c10-9.4,10.5-25.2,1.1-35.3Z"/>
</svg>