<?xml version="1.0" encoding="UTF-8"?>
<svg id="_레이어_1" data-name="레이어_1" xmlns="http://www.w3.org/2000/svg" version="1.1" viewBox="0 0 800 800">
  <!-- Generator: Adobe Illustrator 29.2.1, SVG Export Plug-In . SVG Version: 2.1.0 Build 116)  -->
  <defs>
    <style>
      .st0 {
        stroke-linecap: round;
        stroke-linejoin: round;
      }

      .st0, .st1 {
        fill: none;
        stroke: #fff;
        stroke-width: 20px;
      }

      .st1 {
        stroke-miterlimit: 133.3;
      }
    </style>
  </defs>
  <path class="st0" d="M442.7,100v146.7c0,18.7,0,28,3.6,35.1,3.2,6.3,8.3,11.4,14.6,14.6,7.1,3.6,16.5,3.6,35.1,3.6h146.7M442.7,100h-160c-37.3,0-56,0-70.3,7.3-12.5,6.4-22.7,16.6-29.1,29.1-7.3,14.3-7.3,32.9-7.3,70.3v386.7c0,37.3,0,56,7.3,70.3,6.4,12.5,16.6,22.7,29.1,29.1,14.3,7.3,32.9,7.3,70.3,7.3h160M442.7,100l200,200M642.7,300v83.3"/>
  <path class="st1" d="M499,549.1v-74.6c0-44.7,29.8-74.6,74.6-74.6s74.6,29.8,74.6,74.6v74.6M573.6,728.1c57.7,0,104.4-46.7,104.4-104.4s-46.7-104.4-104.4-104.4-104.4,46.7-104.4,104.4,46.7,104.4,104.4,104.4ZM573.6,608.8v59.6M573.6,623.7c8.2,0,14.9-6.7,14.9-14.9s-6.7-14.9-14.9-14.9-14.9,6.7-14.9,14.9,6.7,14.9,14.9,14.9Z"/>
</svg>