<?xml version="1.0" encoding="UTF-8"?>
<svg id="_레이어_1" data-name="레이어_1" xmlns="http://www.w3.org/2000/svg" version="1.1" viewBox="0 0 800 800">
  <!-- Generator: Adobe Illustrator 29.2.1, SVG Export Plug-In . SVG Version: 2.1.0 Build 116)  -->
  <defs>
    <style>
      .st0 {
        fill: #fff;
        fill-rule: evenodd;
      }
    </style>
  </defs>
  <path class="st0" d="M598.3,482.9h103v-85.8h-103v85.8ZM598.3,448.5c0,9.5,7.7,17.2,17.2,17.2s17.2-7.7,17.2-17.2-7.7-17.2-17.2-17.2-17.2,7.7-17.2,17.2ZM701.3,448.5c0-9.5-7.7-17.2-17.2-17.2s-17.2,7.7-17.2,17.2,7.7,17.2,17.2,17.2,17.2-7.7,17.2-17.2ZM735.4,485.7c.2-.9.2-1.9.2-2.8v-103c0-9.5-7.7-17.2-17.2-17.2h-137.3c-9.5,0-17.2,7.7-17.2,17.2v103c0,1,0,1.9.2,2.8-20.1,7-34.6,26.1-34.6,48.7v120.2c0,66.4,53.8,120.2,120.2,120.2s120.2-53.8,120.2-120.2v-120.2c0-22.5-14.4-41.6-34.6-48.7ZM564,534.4c0-9.5,7.7-17.2,17.2-17.2h137.3c9.5,0,17.2,7.7,17.2,17.2v120.2c0,47.4-38.4,85.8-85.8,85.8s-85.8-38.4-85.8-85.8v-120.2Z"/>
  <g id="Page-1">
    <g id="icon">
      <path id="Combined-Shape" class="st0" d="M329.6,373.8l25.7,25.7-60.1,60.1v-37.1s-97.4,0-97.4,0v73h61.4s-37,37-37,37v11.6s-73,0-73,0v-121.7h-48.7v292.1h48.7v-121.7h73s0,48.7,0,48.7h-24.3v73h97.4v-73h35.9l12.7-12.7v85.8h48.7v-134.4s48.7-48.7,48.7-48.7v231.8s-389.4,0-389.4,0v-389.4h277.8ZM421.5,367.7l74.5,74.5-174.9,174.9h-74.5v-74.5l174.9-174.9ZM374.3,466.5l-91.2,91.2v22.9h22.9l91.3-91.3-22.9-22.9ZM421.5,419.4l-21.4,21.4,22.9,22.9,21.4-21.4-22.9-22.9Z"/>
    </g>
  </g>
  <path id="cancel" class="st0" d="M422.2,359.5c-92.1,0-166.7-74.7-166.7-166.7S330.1,26,422.2,26s166.7,74.7,166.7,166.7-74.7,166.7-166.7,166.7ZM422.2,53.8c-76.7,0-139,62.2-139,139s62.2,139,139,139,139-62.2,139-139-62.2-139-139-139ZM487.6,258.1c-5.2,5.2-13.5,5.2-18.7,0,0,0,0,0,0,0l-46.9-46.9-46.9,46.9c-5,5.3-13.3,5.5-18.6.5-5.3-5-5.5-13.3-.5-18.6.2-.2.4-.4.6-.6l46.9-46.9-46.9-46.9c-5.3-5-5.6-13.3-.6-18.6,5-5.3,13.3-5.6,18.6-.6.2.2.4.4.6.6l46.9,46.9,46.9-46.9c5.1-5.2,13.4-5.3,18.6-.2,5.2,5.1,5.3,13.4.2,18.6,0,0-.1.2-.2.2l-46.9,46.9,46.9,46.9c5.2,5.1,5.2,13.5,0,18.6Z"/>
</svg>