<?xml version="1.0" encoding="UTF-8"?>
<svg id="_레이어_1" data-name="레이어_1" xmlns="http://www.w3.org/2000/svg" version="1.1" viewBox="0 0 800 800">
  <!-- Generator: Adobe Illustrator 29.2.1, SVG Export Plug-In . SVG Version: 2.1.0 Build 116)  -->
  <defs>
    <style>
      .st0 {
        fill: none;
        stroke: #fff;
        stroke-linecap: round;
        stroke-linejoin: round;
        stroke-width: 30px;
      }
    </style>
  </defs>
  <path class="st0" d="M87,736.4c0-66.9,49.5-122.3,113.9-131.5M388.2,626.3c-1.3,0-2.6.1-3.9.1-19.4,0-37.2-8.7-50.6-23-13.4,14.3-31.2,23-50.6,23s-2.6,0-3.9-.1c-1.6,7.2-2.4,14.8-2.4,22.7,0,42,24.2,77.3,56.9,87.3,32.7-10,56.9-45.3,56.9-87.3s-.8-15.4-2.4-22.7ZM295.8,470.6c0,41.9-34,75.9-75.9,75.9s-75.9-34-75.9-75.9,34-75.9,75.9-75.9,75.9,34,75.9,75.9Z"/>
  <path class="st0" d="M652.5,634.9l90.5,90.5M743,634.9l-90.5,90.5M453.3,725.4c0-70,56.7-126.7,126.7-126.7M652.5,471.9c0,40-32.4,72.4-72.4,72.4s-72.4-32.4-72.4-72.4,32.4-72.4,72.4-72.4,72.4,32.4,72.4,72.4Z"/>
  <path class="st0" d="M555.5,301v-18c0-19.8-16-35.8-35.8-35.8s-35.8,16-35.8,35.8v18M287.2,354.6c0-69.1,56.1-125.2,125.2-125.2s12,.4,17.9,1.3M492.9,354.6h53.7c8.3,0,12.5,0,15.8-1.4,4.4-1.8,7.9-5.3,9.7-9.7,1.4-3.3,1.4-7.5,1.4-15.8s0-12.5-1.4-15.8c-1.8-4.4-5.3-7.9-9.7-9.7-3.3-1.4-7.5-1.4-15.8-1.4h-53.7c-8.3,0-12.5,0-15.8,1.4-4.4,1.8-7.9,5.3-9.7,9.7-1.4,3.3-1.4,7.5-1.4,15.8s0,12.5,1.4,15.8c1.8,4.4,5.3,7.9,9.7,9.7,3.3,1.4,7.5,1.4,15.8,1.4ZM484,104.2c0,39.5-32,71.5-71.5,71.5s-71.5-32-71.5-71.5,32-71.5,71.5-71.5,71.5,32,71.5,71.5Z"/>
</svg>