<?xml version="1.0" encoding="UTF-8"?>
<svg id="_레이어_1" data-name="레이어_1" xmlns="http://www.w3.org/2000/svg" version="1.1" viewBox="0 0 800 800">
  <!-- Generator: Adobe Illustrator 29.2.1, SVG Export Plug-In . SVG Version: 2.1.0 Build 116)  -->
  <defs>
    <style>
      .st0, .st1 {
        fill: #fff;
      }

      .st1 {
        fill-rule: evenodd;
      }
    </style>
  </defs>
  <path class="st0" d="M599.3,614c-1.4,0-2.6-1.2-2.6-2.6s1.1-2.6,2.6-2.6h0c1.4,0,2.6,1.2,2.6,2.6h0c0,1.4-1.2,2.6-2.6,2.6h0ZM459.3,474.1c-1.4,0-2.6-1.2-2.6-2.6s1.1-2.6,2.6-2.6h0c1.4,0,2.6,1.2,2.6,2.6h0c0,1.4-1.2,2.6-2.6,2.6h0ZM469.7,474.1c-1.4,0-2.6-1.2-2.6-2.6s1.1-2.6,2.6-2.6h0c1.4,0,2.6,1.2,2.6,2.6h0c0,1.4-1.2,2.6-2.6,2.6h0ZM480,474.1c-1.4,0-2.6-1.2-2.6-2.6s1.1-2.6,2.6-2.6h0c1.4,0,2.6,1.2,2.6,2.6h0c0,1.4-1.2,2.6-2.6,2.6h0Z"/>
  <path class="st0" d="M775.4,702.2h-326.6c-1.4,0-2.6-1.2-2.6-2.6,0,0,0,0,0,0v-222.9c0-1.4,1.2-2.6,2.6-2.6h326.6c1.4,0,2.6,1.2,2.6,2.6h0v222.9c0,1.4-1.2,2.6-2.6,2.6h0,0ZM451.4,697h321.4v-217.8h-321.4v217.8Z"/>
  <path class="st0" d="M775.4,479.2h-326.6c-1.4,0-2.6-1.2-2.6-2.6,0,0,0,0,0,0v-5.2c0-4.3,3.5-7.8,7.8-7.8h316.3c4.3,0,7.8,3.5,7.8,7.8v5.2c0,1.4-1.2,2.6-2.6,2.6h0,0ZM451.4,474.1h321.4v-2.6c0-1.4-1.2-2.6-2.6-2.6h-316.3c-1.4,0-2.6,1.2-2.6,2.6v2.6ZM759.9,546.6h-295.5c-1.4,0-2.6-1.2-2.6-2.6,0,0,0,0,0,0v-51.8c0-1.4,1.2-2.6,2.6-2.6h295.5c1.4,0,2.6,1.2,2.6,2.6h0v51.8c0,1.4-1.2,2.6-2.6,2.6h0,0ZM466.9,541.5h290.3v-46.7h-290.3s0,46.7,0,46.7Z"/>
  <path class="st0" d="M718.4,515.5h-212.6c-1.4,0-2.6-1.2-2.6-2.6h0c0-1.4,1.2-2.6,2.6-2.6h212.6c1.4,0,2.6,1.2,2.6,2.6h0c0,1.4-1.2,2.6-2.6,2.6h0ZM666.5,525.9h-108.9c-1.4,0-2.6-1.2-2.6-2.6s1.2-2.6,2.6-2.6h108.9c1.4,0,2.6,1.2,2.6,2.6s-1.2,2.6-2.6,2.6ZM759.9,588.1h-295.5c-1.4,0-2.6-1.2-2.6-2.6,0,0,0,0,0,0v-25.9c0-1.4,1.2-2.6,2.6-2.6h295.5c1.4,0,2.6,1.2,2.6,2.6h0v25.9c0,1.4-1.2,2.6-2.6,2.6h0,0ZM466.9,582.9h290.3v-20.7h-290.3v20.7Z"/>
  <path class="st0" d="M479.9,582.9c-1.1,0-2.1-.7-2.5-1.8l-5.2-15.2c-.5-1.4.3-2.8,1.6-3.3,0,0,0,0,0,0,1.4-.4,2.8.3,3.3,1.6l5.2,15.2c.5,1.4-.3,2.8-1.6,3.3h0c-.3,0-.6.1-.8.1Z"/>
  <path class="st0" d="M479.9,582.9c-1.4,0-2.6-1.2-2.6-2.6,0-.4,0-.8.3-1.2l5.2-10.4c.6-1.3,2.2-1.8,3.5-1.2,1.3.6,1.8,2.2,1.2,3.5l-5.2,10.4c-.4.9-1.3,1.4-2.3,1.4Z"/>
  <path class="st0" d="M490.3,582.9c-1,0-1.9-.6-2.3-1.4l-5.2-10.4c-.6-1.3-.1-2.8,1.2-3.5,0,0,0,0,0,0,1.3-.6,2.8-.1,3.5,1.2l5.2,10.4c.6,1.3.1,2.8-1.2,3.5-.4.2-.8.3-1.2.3Z"/>
  <path class="st0" d="M490.3,582.9c-.3,0-.5,0-.8-.1-1.4-.5-2.1-1.9-1.6-3.3l5.2-15.6c.5-1.4,1.9-2.1,3.3-1.6,0,0,0,0,0,0,1.4.5,2.1,1.9,1.6,3.3l-5.2,15.6c-.4,1.1-1.3,1.8-2.5,1.8Z"/>
  <path class="st0" d="M505.8,582.9c-1.1,0-2.1-.7-2.5-1.8l-5.2-15.2c-.5-1.4.3-2.8,1.6-3.3,0,0,0,0,0,0,1.4-.4,2.8.3,3.3,1.6l5.2,15.2c.5,1.4-.3,2.8-1.6,3.3,0,0,0,0,0,0-.3,0-.6.1-.8.1Z"/>
  <path class="st0" d="M505.8,582.9c-1.4,0-2.6-1.2-2.6-2.6,0-.4,0-.8.3-1.2l5.2-10.4c.6-1.3,2.2-1.8,3.5-1.2,1.3.6,1.8,2.2,1.2,3.5l-5.2,10.4c-.4.9-1.3,1.4-2.3,1.4h0Z"/>
  <path class="st0" d="M516.2,582.9c-1,0-1.9-.6-2.3-1.4l-5.2-10.4c-.6-1.3-.1-2.8,1.2-3.5,1.3-.6,2.8-.1,3.5,1.2l5.2,10.4c.6,1.3.1,2.8-1.2,3.5-.4.2-.8.3-1.2.3h0Z"/>
  <path class="st0" d="M516.2,582.9c-.3,0-.5,0-.8-.1-1.4-.5-2.1-1.9-1.6-3.3l5.2-15.6c.4-1.4,1.9-2.1,3.3-1.6,0,0,0,0,0,0,1.4.5,2.1,1.9,1.6,3.3l-5.2,15.6c-.4,1.1-1.3,1.8-2.5,1.8Z"/>
  <path class="st0" d="M531.7,582.9c-1.1,0-2.1-.7-2.5-1.8l-5.2-15.2c-.5-1.4.3-2.8,1.6-3.3,0,0,0,0,0,0,1.4-.4,2.8.3,3.3,1.6l5.2,15.2c.5,1.4-.3,2.8-1.6,3.3,0,0,0,0,0,0-.3,0-.6.1-.8.1Z"/>
  <path class="st0" d="M531.7,582.9c-1.4,0-2.6-1.2-2.6-2.6,0-.4,0-.8.3-1.2l5.2-10.4c.6-1.3,2.2-1.8,3.5-1.2,1.3.6,1.8,2.2,1.2,3.5l-5.2,10.4c-.4.9-1.3,1.4-2.3,1.4h0Z"/>
  <path class="st0" d="M542.1,582.9c-1,0-1.9-.6-2.3-1.4l-5.2-10.4c-.6-1.3-.1-2.8,1.2-3.5,1.3-.6,2.8-.1,3.5,1.2l5.2,10.4c.6,1.3.1,2.8-1.2,3.5-.4.2-.8.3-1.2.3h0Z"/>
  <path class="st0" d="M542.1,582.9c-.3,0-.6,0-.8-.1-1.4-.5-2.1-1.9-1.6-3.3l5.2-15.6c.4-1.4,1.9-2.1,3.3-1.6,0,0,0,0,0,0,1.4.5,2.1,1.9,1.6,3.3l-5.2,15.6c-.4,1.1-1.3,1.8-2.5,1.8ZM739.1,577.8c-4.3,0-7.8-3.5-7.8-7.8s3.5-7.8,7.8-7.8,7.8,3.5,7.8,7.8-3.5,7.8-7.8,7.8ZM739.1,567.4c-1.4,0-2.6,1.2-2.6,2.6,0,1.4,1.2,2.6,2.6,2.6s2.6-1.2,2.6-2.6c0-1.4-1.2-2.6-2.6-2.6Z"/>
  <path class="st0" d="M749.5,582.9c-.7,0-1.3-.3-1.8-.8l-6.7-6.7c-1-1-1-2.7,0-3.7s2.7-1,3.7,0l6.7,6.7c1,1,1,2.7,0,3.7-.5.5-1.1.8-1.8.8h0ZM588.8,614h-124.4c-1.4,0-2.6-1.2-2.6-2.6h0c0-1.4,1.2-2.6,2.6-2.6h124.4c1.4,0,2.6,1.2,2.6,2.6h0c0,1.4-1.2,2.6-2.6,2.6h0ZM759.9,614h-36.3c-1.4,0-2.6-1.2-2.6-2.6h0c0-1.4,1.2-2.6,2.6-2.6h36.3c1.4,0,2.6,1.2,2.6,2.6h0c0,1.4-1.2,2.6-2.6,2.6h0ZM692.5,619.2c-.7,0-1.3-.3-1.8-.8l-5.2-5.2c-1-1-1-2.7,0-3.7s2.7-1,3.7,0l5.2,5.2c1,1,1,2.7,0,3.7h0c-.5.5-1.1.8-1.8.8h0Z"/>
  <path class="st0" d="M692.5,619.2c-.7,0-1.3-.3-1.8-.8-1-1-1-2.7,0-3.7h0s10.4-10.4,10.4-10.4c1-1,2.7-1,3.7,0h0c1,1,1,2.7,0,3.7h0s-10.4,10.4-10.4,10.4c-.5.5-1.1.8-1.8.8h0ZM619.9,614h-10.4c-1.4,0-2.6-1.2-2.6-2.6h0c0-1.4,1.2-2.6,2.6-2.6h10.4c1.4,0,2.6,1.2,2.6,2.6h0c0,1.4-1.2,2.6-2.6,2.6h0ZM604.5,676.3c-1.4,0-2.6-1.2-2.6-2.6s1.1-2.6,2.6-2.6h0c1.4,0,2.6,1.2,2.6,2.6h0c0,1.4-1.2,2.6-2.6,2.6h0ZM593.9,676.3h-129.6c-1.4,0-2.6-1.2-2.6-2.6,0,0,0,0,0,0,0-1.4,1.2-2.6,2.6-2.6h129.6c1.4,0,2.6,1.2,2.6,2.6h0c0,1.4-1.2,2.6-2.6,2.6h0ZM759.9,676.3h-36.3c-1.4,0-2.6-1.2-2.6-2.6h0c0-1.4,1.2-2.6,2.6-2.6h36.3c1.4,0,2.6,1.2,2.6,2.6h0c0,1.4-1.2,2.6-2.6,2.6h0ZM692.5,681.4c-.7,0-1.3-.3-1.8-.8l-5.2-5.2c-1-1-1-2.7,0-3.7h0c1-1,2.7-1,3.7,0h0s5.2,5.2,5.2,5.2c1,1,1,2.7,0,3.7h0c-.5.5-1.1.8-1.8.8h0Z"/>
  <path class="st0" d="M692.5,681.4c-.7,0-1.3-.3-1.8-.8-1-1-1-2.7,0-3.7h0s10.4-10.4,10.4-10.4c1-1,2.7-1,3.7,0h0c1,1,1,2.7,0,3.7h0s-10.4,10.4-10.4,10.4c-.5.5-1.1.8-1.8.8h0ZM625.1,676.3h-10.4c-1.4,0-2.6-1.2-2.6-2.6h0c0-1.4,1.2-2.6,2.6-2.6h10.4c1.4,0,2.6,1.2,2.6,2.6h0c0,1.4-1.2,2.6-2.6,2.6h0ZM625.2,645.2c-1.4,0-2.6-1.2-2.6-2.6s1.1-2.6,2.6-2.6h0c1.4,0,2.6,1.2,2.6,2.6,0,1.4-1.2,2.6-2.6,2.6ZM614.7,645.2h-150.4c-1.4,0-2.6-1.2-2.6-2.6s1.2-2.6,2.6-2.6h150.4c1.4,0,2.6,1.2,2.6,2.6s-1.2,2.6-2.6,2.6ZM759.9,645.2h-36.3c-1.4,0-2.6-1.2-2.6-2.6s1.2-2.6,2.6-2.6h36.3c1.4,0,2.6,1.2,2.6,2.6s-1.2,2.6-2.6,2.6ZM687.3,650.3c-1.4,0-2.6-1.2-2.6-2.6,0-.7.3-1.3.8-1.8l10.4-10.4c1-1,2.7-1,3.7,0s1,2.7,0,3.7l-10.4,10.4c-.5.5-1.1.8-1.8.8h0Z"/>
  <path class="st0" d="M697.6,650.3c-.7,0-1.3-.3-1.8-.8l-10.4-10.4c-1-1-1-2.7,0-3.7s2.7-1,3.7,0l10.4,10.4c1,1,1,2.7,0,3.7-.5.5-1.1.8-1.8.8h0ZM645.8,645.2h-10.4c-1.4,0-2.6-1.2-2.6-2.6s1.2-2.6,2.6-2.6h10.4c1.4,0,2.6,1.2,2.6,2.6s-1.2,2.6-2.6,2.6Z"/>
  <path class="st0" d="M294.2,270.2c-.2,31.5,25.7,57.7,57.3,57.8h27.3c0,.1-66.2,63.5-66.2,63.5v13c0,0,172.6.8,172.6.8v-12.4c0,0-66.6-64.7-66.6-64.7h28.8c31.5.3,57.7-25.6,57.8-57.1l.6-115.1c.2-31.5-25.7-57.7-57.3-57.8l-95.9-.5c-31.5-.2-57.7,25.7-57.8,57.3l-.6,115.1ZM332.6,270.3l.6-115.1c0-10.9,8.3-19.1,19.3-19.1l95.9.5c10.9,0,19.1,8.3,19.1,19.3l-.6,115.1c0,10.9-8.3,19.1-19.3,19.1l-95.9-.5c-10.9,0-19.1-8.3-19.1-19.3Z"/>
  <path class="st1" d="M36.6,455.3l-13.7,13.7v219.5l13.7,13.7h301.8l13.7-13.7v-219.5l-13.7-13.7H36.6ZM50.3,500v174.8h274.4v-174.8l-137.2,124.7-137.2-124.7ZM302.9,482.7H72.1l115.4,104.9,115.4-104.9Z"/>
</svg>